<?xml version="1.0" encoding="UTF-8"?>
<svg viewBox="0 0 128 128" xmlns="http://www.w3.org/2000/svg">
 <path d="m41.171 110.94c0.96123 2.3354 0.88606 2.0665 1.7262 3.2473-0.92758 1.7796 2.0012 4.7781 5.4869 5.5682 1.1232 0.8091 1.5195 0.53974 3.9158 1.5116 6.057 1.5076 13.786 0.66539 18.524 0.54394 4.3014-0.2996 8.5917-1.6381 10.457-2.3662 3.3802-1.3193 5.5009-2.6288 7.0549-5.1949 2.7107-4.476 1.7775-8.0796-0.62975-10.071 2.6765-2.6696 3.9632-7.0315 2.9982-10.286 3.8047-2.6885 4.8363-9.6269 4.1598-15.813-0.34147-3.1228-1.8273-5.3043-2.7917-6.6414 0.71031-5.5431-0.47235-11.171-2.9516-15.175-1.7077-2.7582-5.1804-6.1575-8.6007-6.2439s-11.105 2.3299-12.116-2.7797 3.9683-12.162 5.1306-19.57c0.71468-4.5547-3.0597-9.9355-5.5532-13.459-2.4865-3.5137-5.9389-5.4207-10.297-7.45-3.5878-1.6707-9.2689-1.1983-11.759 2.3912-2.6645 3.8412-1.8348 10.082-0.83287 14.702 0.9058 4.1764 2.6032 8.1113 3.1953 12.415 0.58086 4.2212 1.8772 11.973 0.81909 15.777-3.2244 3.0056-6.5066 3.0495-10.12 5.0426-3.3924 1.8712-5.1628 6.0836-4.4382 9.8268 0.51308 2.6507 3.4096 4.43 1.1908 7.1714-2.6474 3.2708-4.2574 8.2065-0.90247 11.119s2.851 4.1748 3.3514 4.6407 0.59966 1.6028-0.60209 4.7588c-1.9405 5.0961-2.6165 5.5114 1.3364 9.1161 1.4685 1.3392-1.5256 6.4459 2.2481 7.2188z" fill="#fff"/>
 <path d="m70.824 121.82c-4.7382 0.12145-12.467 0.96363-18.524-0.54394 3.3569 0.2032 6.249-0.22317 7.7864-0.38537 3.3767-0.35619 7.1064-1.3146 9.8589-2.2894 3.1191-1.1045 3.7279-1.556 5.7254-2.7395-0.25632 1.3157-0.87891 2.6737-1.8667 3.5846 3.3948-0.93405 10.696-3.3378 12.688-6.2586 1.9376-2.8407 2.1091-5.8934-0.99594-8.3928-1.1228-0.84787-1.4716-2.5911 0.31087-1.7766 0.5757-0.7429 1.9725-3.2854 2.3042-5.0349 0.69357-3.6583-0.84809-9.8625-3.9282-12.403 1.9892 0.78339 4.777 3.7805 5.8631 5.4554 2.8813-2.9715 3.7338-8.1341 3.0676-13.054-0.86499-6.3875-3.0988-8.1782-8.3749-11.328 3.1423 0.51848 4.6208 1.6092 5.9044 2.846 0.43083-4.1931-1.1128-8.5897-3.0728-12.263-1.4234-2.6674-4.1204-5.3654-7.0504-7.2086 3.4204 0.08634 6.8931 3.4856 8.6007 6.2439 2.4792 4.0044 3.6619 9.6324 2.9516 15.175 0.96439 1.337 2.4502 3.5186 2.7917 6.6414 0.67648 6.1863-0.3551 13.125-4.1598 15.813 0.96502 3.2544-0.32162 7.6163-2.9982 10.286 2.4072 1.9913 3.3405 5.5948 0.62975 10.071-1.554 2.5661-3.6747 3.8755-7.0549 5.1949-1.8656 0.72815-6.1558 2.0666-10.457 2.3662zm-32.635-31.965c-0.5004-0.46591 0.00359-1.7277-3.3514-4.6407s-1.7449-7.8486 0.90247-11.119c2.2188-2.7413-0.67774-4.5207-1.1908-7.1714-0.72453-3.7431 1.0459-7.9556 4.4382-9.8268 3.6135-1.9931 6.8956-2.037 10.12-5.0426 1.0581-3.8044-0.23823-11.556-0.81909-15.777-0.59215-4.3033-2.2895-8.2382-3.1953-12.415-1.0019-4.6196-1.8317-10.861 0.83287-14.702 2.49-3.5895 8.1711-4.0619 11.759-2.3912 4.3578 2.0293 7.8103 3.9362 10.297 7.45 2.4936 3.5238 6.2679 8.9046 5.5532 13.459-1.1624 7.4078-6.1424 14.46-5.1306 19.57-2.4368-4.1545 2.8735-13.562 3.338-19.222 0.43236-5.3203-2.7642-9.516-5.2284-12.827-1.5831-2.1269-5.2299-5.0081-8.7066-6.3765-2.8436-1.1192-6.6932-2.3492-9.8212 1.1716-2.8482 3.0186-1.9409 9.8122-1.0109 13.396 1.2892 4.9682 2.8201 9.7667 3.5364 15.685 0.46197 3.8168 0.65321 8.9338 0.26237 12.977 1.6149 0.7191 7.0721-1.5637 10.205-2.2292 4.2607-0.90508 9.4483-3.0112 13.71-0.3771-6.1603-0.51564-10.818 0.93896-16.227 2.4969-4.0334 1.1616-7.9893 2.6693-11.963 3.9541-3.0461 1.2633-6.5709 2.4627-8.7154 4.8847-1.9266 2.1759-2.6734 4.557-0.13617 7.0334 3.3841 3.303-0.62629 7.1638-2.6114 9.7846-2.6666 3.5206 1.8784 6.3101 3.7638 8.7754 2.0587 2.6919 0.50914 7.1727-0.83665 10.305-1.3942 3.2454 1.0287 3.2552 3.0141 7.079 1.1451 2.2054-1.1008 5.0245 0.19486 7.1878-3.7737-0.7729-0.77964-5.8796-2.2481-7.2188-3.9529-3.6047-3.277-4.02-1.3364-9.1161 1.2018-3.1559 1.1025-4.2929 0.60209-4.7588zm10.196 29.909c-2.0794-0.36559-6.4836-3.0125-5.4869-5.5682 0.84019 1.7165 6.0601 2.6162 5.4869 5.5682zm13.56-13.678c-1.8739-0.37382-7.0282-4.3333-4.4507-4.7961 3.7944 1.0403 7.9763 3.0718 12.095 1.9968 4.1121-1.0734 9.1248-1.9738 12.92-0.28588-4.0078 0.54367-6.7451 1.5145-10.618 2.2354-3.1295 0.58259-6.6807 1.5011-9.946 0.8497zm20.655-9.0303c1.2108-3.0595-2.302-8.6258-0.40854-9.5621 0.93211 2.9843 4.8573 6.0869 1.8876 8.764-0.15579 0.3995-0.98579 1.8568-1.479 0.79805zm-29.15-9.6937c-3.9491-3.1028-2.9235-3.8871-0.58001-3.3166 2.4922 0.60658 8.6323 0.92462 10.416 0.503 3.9937-0.94418 12.142-2.644 15.467 0.36546-3.4947-0.5769-10.108 1.1047-14.463 1.8152-2.4315 0.39663-8.9067 2.1515-10.839 0.63294zm27.146-5.9046c3.424-2.2888-0.18291-9.8699 3.0679-10.78 1.2368 3.4496 2.2137 10.591-2.8507 11.021l-0.2172-0.24025-1e-5 -1e-5zm-29.238-11.086c-3.6078-1.5517-3.5233-3.5655 1.1423-3.1319 5.7696 0.53623 11.857-0.89391 17.358-1.5984 3.5743-0.4577 9.7482-1.1785 12.221 0.34801-4.4463 0.7877-9.0988 0.87306-13.341 2.1786-4.9093 1.5111-16.632 2.5259-17.381 2.2036zm27.787-18.258c2.2118 2.1044 4.9548 5.6506 2.587 8.7399 0.31481-3.3938-2.9264-5.8073-2.587-8.7399zm-25.912-13.822c1.5548-3.7372 8.0724-2.0453 11.918-2.1851 3.0793 2.8753-2.6939 1.4982-4.3881 1.8409-2.269-0.44818-5.9264 2.8249-7.5296 0.3442z"/>
</svg>
